<?xml version="1.0" encoding="utf-8"?>
<!-- Generator: Adobe Illustrator 24.0.0, SVG Export Plug-In . SVG Version: 6.00 Build 0)  -->
<svg version="1.1" id="Layer_1" xmlns="http://www.w3.org/2000/svg" xmlns:xlink="http://www.w3.org/1999/xlink" x="0px" y="0px"
	 viewBox="0 0 192.56 41.86" style="enable-background:new 0 0 192.56 41.86;" xml:space="preserve">
<style type="text/css">
	.st0{fill:#1B9BD4;}
	.st1{fill:#FFFFFF;}
</style>
<g>
	<path class="st1" d="M14.3,34.65H4.07V8.38H14.3c6.97,0.04,12.61,5.92,12.61,13.14C26.91,28.77,21.27,34.62,14.3,34.65z
		 M20.4,28.59c1.68-1.89,2.63-4.38,2.63-7.08c0-2.66-0.95-5.18-2.63-7.04c-1.65-1.86-3.85-2.87-6.17-2.87H7.96v19.83h6.27
		C16.54,31.43,18.75,30.45,20.4,28.59z"/>
	<path class="st1" d="M93.45,31.01c-2.42,2.66-5.89,3.99-9.7,3.99c-7.39,0-13.35-5.85-13.35-13.49c0-7.6,5.96-13.45,13.35-13.45
		c3.82,0,7.29,1.33,9.74,4.03l-2.56,2.56c-1.54-2.24-4.34-3.36-7.18-3.36c-5.43,0-9.46,4.83-9.46,10.23
		c0,4.94,3.64,10.26,9.46,10.26c2.52,0,5.74-0.98,7.15-3.33L93.45,31.01z"/>
	<path class="st1" d="M115.02,19.24l12.93,15.41h-5.43l-10.47-12.93l-3.82,3.19v9.74h-3.89V8.38h3.89v11.98l14.01-11.98h5.71
		L115.02,19.24z"/>
	<path class="st1" d="M156.25,31.43v3.22H138.1V8.38h17.48v3.22h-13.59v7.78h11.1v3.26h-11.1v8.79H156.25z"/>
	<g>
		<path class="st0" d="M46.87,30.87c-4.23-1.04-7.06-5.18-7.06-9.66c0-4.45,2.84-8.59,7.06-9.63V8.38
			c-6.12,0.97-10.82,6.18-10.82,12.82s4.7,11.87,10.82,12.85V30.87z"/>
		<path class="st0" d="M51.02,8.38v3.19c4.23,1.04,7.07,5.18,7.07,9.63c0,4.48-2.82,8.63-7.07,9.66v3.19
			c6.12-0.98,10.82-6.21,10.82-12.85S57.14,9.36,51.02,8.38z"/>
	</g>
	<g>
		<polygon class="st1" points="178.11,21.56 187.25,8.39 182.73,8.39 175.87,18.24 173.66,21.56 164.52,34.66 169.07,34.66 
			175.9,24.86 		"/>
		<polygon class="st1" points="177.45,26.89 182.73,34.66 187.25,34.66 179.69,23.75 		"/>
		<polygon class="st1" points="168.3,8.11 163.74,8.11 172.02,19.61 174.18,16.62 		"/>
	</g>
</g>
</svg>
