<?xml version="1.0" encoding="utf-8"?>
<!-- Generator: Adobe Illustrator 24.0.0, SVG Export Plug-In . SVG Version: 6.00 Build 0)  -->
<svg version="1.1" id="Layer_1" xmlns="http://www.w3.org/2000/svg" xmlns:xlink="http://www.w3.org/1999/xlink" x="0px" y="0px"
	 viewBox="0 0 192.56 41.86" style="enable-background:new 0 0 192.56 41.86;" xml:space="preserve">
<style type="text/css">
	.st0{fill:#1B9BD4;}
	.st1{fill:#FFFFFF;}
</style>
<g>
	<path d="M15.07,35.04H4.84V8.76h10.23c6.97,0.04,12.61,5.92,12.61,13.14C27.68,29.15,22.04,35,15.07,35.04z M21.17,28.98
		c1.68-1.89,2.63-4.38,2.63-7.08c0-2.66-0.95-5.18-2.63-7.04C19.52,13,17.31,11.99,15,11.99H8.73v19.83H15
		C17.31,31.81,19.52,30.83,21.17,28.98z"/>
	<path d="M94.22,31.39c-2.42,2.66-5.89,3.99-9.7,3.99c-7.39,0-13.35-5.85-13.35-13.49c0-7.6,5.96-13.45,13.35-13.45
		c3.82,0,7.29,1.33,9.74,4.03l-2.56,2.56c-1.54-2.24-4.34-3.36-7.18-3.36c-5.43,0-9.46,4.83-9.46,10.23
		c0,4.94,3.64,10.26,9.46,10.26c2.52,0,5.74-0.98,7.15-3.33L94.22,31.39z"/>
	<path d="M115.79,19.62l12.93,15.41h-5.43l-10.47-12.93L109,25.3v9.74h-3.89V8.76H109v11.98l14.01-11.98h5.71L115.79,19.62z"/>
	<path d="M157.02,31.81v3.22h-18.15V8.76h17.48v3.22h-13.59v7.78h11.1v3.26h-11.1v8.79H157.02z"/>
	<g>
		<path class="st0" d="M47.64,31.25c-4.23-1.04-7.06-5.18-7.06-9.66c0-4.45,2.84-8.59,7.06-9.63V8.77
			c-6.12,0.97-10.82,6.18-10.82,12.82s4.7,11.87,10.82,12.85V31.25z"/>
		<path class="st0" d="M51.79,8.77v3.19c4.23,1.04,7.07,5.18,7.07,9.63c0,4.48-2.82,8.63-7.07,9.66v3.19
			c6.12-0.98,10.82-6.21,10.82-12.85S57.91,9.74,51.79,8.77z"/>
	</g>
	<g>
		<polygon points="178.88,21.95 188.02,8.78 183.5,8.78 176.64,18.62 174.43,21.95 165.29,35.05 169.84,35.05 176.67,25.24 		"/>
		<polygon points="178.22,27.27 183.5,35.05 188.02,35.05 180.46,24.13 		"/>
		<polygon points="169.07,8.5 164.51,8.5 172.79,20 174.95,17 		"/>
	</g>
</g>
</svg>
